<svg xmlns="http://www.w3.org/2000/svg" width="512" height="512" viewBox="0 0 512 512">
  <defs>
    <linearGradient id="bg" x1="0%" y1="0%" x2="100%" y2="100%">
      <stop offset="0%" stop-color="#2563eb"/>
      <stop offset="100%" stop-color="#9333ea"/>
    </linearGradient>
    <filter id="docShadow" x="-20%" y="-20%" width="140%" height="140%">
      <feDropShadow dx="0" dy="4.096" stdDeviation="6.144" flood-opacity="0.25"/>
    </filter>
  </defs>

  <!-- Red rounded background -->
  <rect width="512" height="512" rx="113" ry="113" fill="url(#bg)"/>

  <!-- White PDF document with folded corner -->
  <g filter="url(#docShadow)">
    <path d="
      M 103 57
      L 342 57
      L 410 125
      L 410 456
      L 103 456
      Z"
      fill="#ffffff"/>
    <!-- Folded corner highlight (slightly darker triangle) -->
    <path d="
      M 342 57
      L 342 125
      L 410 125
      Z"
      fill="#e5e7eb"/>
  </g>

  <!-- Blue heart in the document -->
  <path d="M 256.5 337 C 256.5 337, 172 268.6, 172 226.04000000000002 C 172 197.16, 202.42 177.4, 231.15 192.6 C 244.67000000000002 200.2, 253.12 212.36, 256.5 226.04000000000002 C 259.88 212.36, 268.33 200.2, 281.85 192.6 C 310.58 177.4, 341 197.16, 341 226.04000000000002 C 341 268.6, 256.5 337, 256.5 337 Z" fill="#2563eb"/>

  <!-- "PDF" text label -->
  <text x="256.5" y="388.16999999999996"
        font-family="Inter, system-ui, -apple-system, Arial, sans-serif"
        font-weight="800"
        font-size="55"
        fill="#1d4ed8"
        text-anchor="middle"
        letter-spacing="2.75">PDF</text>
</svg>